<svg width="100" height="16" viewBox="0 0 100 16" fill="none" xmlns="http://www.w3.org/2000/svg">
<path d="M51.7327 15.5308C55.8517 15.5308 59.5043 12.759 59.5043 8.04423C59.5043 3.32948 55.8517 0.557617 51.7327 0.557617C47.6138 0.557617 43.9612 3.32948 43.9612 8.04423C43.9612 12.759 47.6138 15.5308 51.7327 15.5308ZM25.1281 15.22H28.1331L21.2164 0.842574H18.3409L11.9423 15.22H14.6105L16.0094 11.9818H23.6515L25.1281 15.22ZM99.7351 0.842574H88.829V15.22H99.9683V12.9144H91.3936V9.18406H98.6989V6.87849H91.3936V3.14814H99.761V0.842574H99.7351ZM61.4731 13.7952C62.0689 14.2615 63.8046 15.5049 66.8873 15.5049C69.9959 15.5049 72.5087 13.8211 72.5087 11.2047C72.5087 5.73866 64.5817 7.47431 64.5817 4.49521C64.5817 3.66624 65.2812 2.9668 67.0945 2.9668C69.2965 2.9668 70.7213 3.9512 71.2653 4.39159L72.3274 2.26736C71.6798 1.64564 69.6592 0.557617 67.0945 0.557617C63.2606 0.557617 61.6803 2.70775 61.6803 4.83198C61.6803 9.80579 69.6074 8.381 69.6074 11.3342C69.6074 12.5776 68.3639 13.1217 66.9391 13.1217C64.789 13.1217 63.0792 12.1632 62.328 11.6192L61.4731 13.7952ZM36.4487 3.12224C38.5988 3.12224 39.8163 4.28797 40.4899 4.90969L42.2773 3.14814C41.6815 2.50051 39.9718 0.557617 36.3968 0.557617C32.2779 0.557617 28.6253 3.32948 28.6253 8.04423C28.6253 12.759 32.252 15.5308 36.3709 15.5308C39.5573 15.5308 41.7074 13.8211 42.4069 13.1994L40.9821 11.1788C39.8422 12.1373 38.0548 12.9662 36.4228 12.9662C33.5732 12.9662 31.423 10.8161 31.423 8.04423C31.3971 5.27237 33.5473 3.12224 36.4487 3.12224ZM51.7327 12.9662C48.8832 12.9662 46.733 10.8161 46.733 8.04423C46.733 5.27237 48.8832 3.12224 51.7327 3.12224C54.5823 3.12224 56.7324 5.27237 56.7324 8.04423C56.7324 10.8161 54.5823 12.9662 51.7327 12.9662ZM78.9591 3.14814V15.22H81.5238V3.14814H86.5494V0.842574H74.063V3.14814H78.9591ZM2.56462 0.842574H0V15.22H10.2067V12.9144H2.56462V0.842574ZM19.688 3.35538L22.6153 9.75397H16.9679L19.688 3.35538Z" fill="#292929"/>
</svg>
